# xmcd
#
# Track frame offsets:
#	150
#	19490
#	41967
#	59442
#	80889
#	97850
#	115733
#	138396
#	160428
#	185257
#	209345
#	225467
#
# Disc length: 3258 seconds
#
# Revision: 2
# Processed by: cddbd v1.5.2PL0 Copyright (c) Steve Scherf et al.
# Submitted via: audiograbber 1.80
#
DISCID=a60cb80c
DTITLE=Vodnyansky - Short Legs and Wide Stance
DYEAR=1900
DGENRE=
TTITLE0=Blue Hour Again
TTITLE1=Happy In Defeat
TTITLE2=One Too Many Night
TTITLE3=Primes
TTITLE4=Rain
TTITLE5=In These Times
TTITLE6=Whiskey Drinking Girl
TTITLE7=Pirate Lost In Paradise
TTITLE8=Old Buff's Wizz
TTITLE9=Missing Miss Lee
TTITLE10=One Century Blues
TTITLE11=I'll Have To Go
EXTD=
EXTT0=
EXTT1=
EXTT2=
EXTT3=
EXTT4=
EXTT5=
EXTT6=
EXTT7=
EXTT8=
EXTT9=
EXTT10=
EXTT11=
PLAYORDER=
